<svg xmlns="http://www.w3.org/2000/svg" width="700" height="430" viewBox="0 0 700 430"><rect width="100%" height="100%" fill="#DDDDDD"/><path fill="#999999" d="M142.145 212.115h3.72q1.37 0 2.38-.34 1.02-.35 1.7-.98.67-.64 1.01-1.56.33-.91.33-2.04 0-1.08-.33-1.94-.34-.87-1-1.48-.67-.62-1.69-.94-1.01-.32-2.4-.32h-3.72v9.6Zm-4.98-13.45h8.7q2.68 0 4.64.63 1.96.63 3.24 1.76 1.28 1.12 1.9 2.7.62 1.57.62 3.44 0 1.94-.65 3.56t-1.94 2.78q-1.3 1.17-3.25 1.82-1.95.64-4.56.64h-3.72v9.42h-4.98v-26.75Zm26.22 8.92.28 2.14q.88-1.7 2.1-2.67 1.23-.97 2.89-.97 1.31 0 2.11.57l-.3 3.42q-.09.34-.26.48-.18.13-.48.13-.27 0-.82-.09-.55-.09-1.06-.09-.76 0-1.35.22-.6.22-1.07.64-.47.42-.83 1.01-.36.59-.68 1.35v11.69h-4.57v-18.98h2.69q.7 0 .98.25t.37.9Zm18.16-1.45q2.11 0 3.84.69 1.73.68 2.96 1.94 1.23 1.26 1.9 3.07.67 1.81.67 4.05 0 2.26-.67 4.07-.67 1.82-1.9 3.09-1.23 1.28-2.96 1.96-1.73.69-3.84.69-2.12 0-3.86-.69-1.74-.68-2.97-1.96-1.23-1.27-1.91-3.09-.67-1.81-.67-4.07 0-2.24.67-4.05.68-1.81 1.91-3.07 1.23-1.26 2.97-1.94 1.74-.69 3.86-.69Zm0 16.04q2.37 0 3.51-1.59 1.14-1.59 1.14-4.66 0-3.07-1.14-4.68-1.14-1.61-3.51-1.61-2.4 0-3.56 1.62-1.15 1.62-1.15 4.67t1.15 4.65q1.16 1.6 3.56 1.6Zm13.01-15.74h4.59v19.63q0 1.24-.33 2.33-.32 1.09-1.03 1.91-.71.83-1.87 1.3-1.16.47-2.82.47-.65 0-1.2-.08-.56-.09-1.15-.27l.17-2.46q.05-.37.29-.47.24-.11.93-.11.68 0 1.15-.13.47-.14.75-.45.28-.3.4-.8t.12-1.24v-19.63Zm5.22-5.53q0 .59-.24 1.11-.24.52-.64.9-.4.39-.95.62-.54.24-1.15.24-.59 0-1.11-.24-.52-.23-.91-.62-.39-.38-.62-.9-.23-.52-.23-1.11 0-.61.23-1.15.23-.54.62-.92.39-.39.91-.62.52-.24 1.11-.24.61 0 1.15.24.55.23.95.62.4.38.64.92t.24 1.15Zm7.64 12.84h8.62q0-.89-.25-1.68-.25-.78-.75-1.38-.5-.59-1.27-.93-.77-.34-1.78-.34-1.98 0-3.12 1.13-1.14 1.12-1.45 3.2Zm11.65 2.75h-11.74q.11 1.46.51 2.53.41 1.06 1.08 1.76.66.69 1.58 1.03.91.34 2.02.34 1.11 0 1.92-.25.8-.26 1.4-.58.61-.31 1.06-.57.45-.26.88-.26.57 0 .85.42l1.31 1.67q-.76.89-1.7 1.49t-1.97.96q-1.03.36-2.09.51-1.06.15-2.06.15-1.98 0-3.68-.66-1.71-.66-2.96-1.94-1.26-1.29-1.98-3.18-.73-1.9-.73-4.4 0-1.94.63-3.65t1.81-2.98q1.17-1.27 2.86-2.01 1.7-.74 3.82-.74 1.8 0 3.32.58 1.51.57 2.6 1.67 1.1 1.1 1.72 2.7.62 1.6.62 3.66 0 1.03-.23 1.39-.22.36-.85.36Zm19.3-7.71-1.2 1.66q-.21.26-.4.41-.2.15-.57.15-.35 0-.68-.21-.33-.22-.8-.49-.46-.26-1.1-.48-.64-.21-1.58-.21-1.2 0-2.11.44-.9.43-1.51 1.24-.6.82-.89 1.97-.3 1.16-.3 2.62 0 1.52.32 2.7.33 1.19.94 1.99.61.81 1.48 1.22.87.42 1.96.42 1.09 0 1.77-.27.67-.27 1.13-.59.47-.32.81-.59.34-.27.77-.27.55 0 .83.42l1.31 1.67q-.76.89-1.64 1.49-.89.6-1.84.96-.96.36-1.97.51-1 .15-2 .15-1.76 0-3.31-.66-1.56-.66-2.72-1.91-1.17-1.26-1.84-3.08-.68-1.83-.68-4.16 0-2.09.6-3.87.6-1.79 1.77-3.09 1.16-1.31 2.88-2.05 1.73-.74 3.96-.74 2.13 0 3.73.69 1.6.68 2.88 1.96Zm9.36 16.93q-2.48 0-3.8-1.4-1.33-1.4-1.33-3.86v-10.6h-1.94q-.37 0-.63-.24t-.26-.72v-1.81l3.06-.5.96-5.18q.09-.37.35-.58.26-.2.67-.2h2.36v5.98h5.07v3.25h-5.07v10.29q0 .89.44 1.39.43.49 1.19.49.43 0 .71-.1.29-.1.5-.21.22-.11.38-.21.17-.1.34-.1.2 0 .33.1t.28.3l1.37 2.22q-1 .84-2.3 1.26-1.29.43-2.68.43Zm22.13-4.41h10.69v4.11h-15.67v-26.75h4.98v22.64Zm13.67-14.87h4.58v18.98h-4.58v-18.98Zm5.21-5.53q0 .59-.24 1.11-.24.52-.63.9-.4.39-.94.62-.54.24-1.15.24-.59 0-1.12-.24-.52-.23-.91-.62-.39-.38-.62-.9-.23-.52-.23-1.11 0-.61.23-1.15.23-.54.62-.92.39-.39.91-.62.53-.24 1.12-.24.61 0 1.15.24.54.23.94.62.39.38.63.92t.24 1.15Zm8 6.36.31 1.5q.57-.57 1.21-1.06.64-.49 1.35-.84.71-.34 1.53-.53.81-.2 1.77-.2 1.56 0 2.76.53 1.2.53 2.01 1.48.8.95 1.22 2.28.42 1.32.42 2.91v12.08h-4.57v-12.08q0-1.74-.8-2.69-.79-.95-2.42-.95-1.19 0-2.22.53-1.04.54-1.96 1.46v13.73h-4.57v-18.98h2.79q.89 0 1.17.83Zm16.9-9.34h4.57v15.74h.86q.46 0 .73-.12.26-.12.54-.49l4.72-5.83q.3-.38.66-.59.36-.2.93-.2h4.18l-5.9 7.05q-.63.83-1.37 1.27.39.28.69.65.31.37.59.8l6.32 9.21h-4.12q-.54 0-.93-.18-.38-.17-.64-.63l-4.85-7.2q-.26-.43-.54-.56-.27-.13-.83-.13h-1.04v8.7h-4.57v-27.49Zm47.66.74h4.39v26.75h-2.56q-.59 0-.99-.19-.4-.2-.77-.66l-13.96-17.83q.11 1.22.11 2.25v16.43h-4.39v-26.75h2.61q.32 0 .55.03.23.02.4.11.18.08.35.24.16.16.37.41l14.02 17.91q-.06-.65-.09-1.27-.04-.63-.04-1.17v-16.26Zm18.02 7.47q2.11 0 3.84.69 1.73.68 2.96 1.94 1.23 1.26 1.89 3.07.67 1.81.67 4.05 0 2.26-.67 4.07-.66 1.82-1.89 3.09-1.23 1.28-2.96 1.96-1.73.69-3.84.69-2.13 0-3.87-.69-1.74-.68-2.97-1.96-1.23-1.27-1.9-3.09-.68-1.81-.68-4.07 0-2.24.68-4.05.67-1.81 1.9-3.07 1.23-1.26 2.97-1.94 1.74-.69 3.87-.69Zm0 16.04q2.37 0 3.51-1.59 1.13-1.59 1.13-4.66 0-3.07-1.13-4.68-1.14-1.61-3.51-1.61-2.41 0-3.56 1.62-1.16 1.62-1.16 4.67t1.16 4.65q1.15 1.6 3.56 1.6Zm19.18 3.54q-2.47 0-3.8-1.4-1.32-1.4-1.32-3.86v-10.6h-1.94q-.37 0-.63-.24t-.26-.72v-1.81l3.05-.5.96-5.18q.1-.37.36-.58.25-.2.66-.2h2.37v5.98h5.07v3.25h-5.07v10.29q0 .89.43 1.39.44.49 1.2.49.42 0 .71-.1t.5-.21q.21-.11.38-.21.16-.1.33-.1.2 0 .33.1t.28.3l1.37 2.22q-1 .84-2.29 1.26-1.3.43-2.69.43Zm22.78-10.4h8.51l-3.26-8.9q-.24-.59-.5-1.41-.26-.81-.52-1.75-.24.94-.5 1.76-.25.83-.49 1.44l-3.24 8.86Zm6.79-16.65 10.51 26.75h-3.85q-.65 0-1.06-.32-.4-.33-.61-.81l-2-5.46h-11.08l-2 5.46q-.14.43-.57.78-.42.35-1.05.35h-3.89l10.53-26.75h5.07Zm26.06 7.77h3.61l-7.53 18.98h-4.14l-7.53-18.98h3.77q.52 0 .86.24.34.24.46.61l3.66 10.14q.29.89.52 1.74.22.85.39 1.7.18-.85.4-1.7.22-.85.54-1.74l3.74-10.14q.13-.37.46-.61t.79-.24Zm16.06 14.08v-3.2q-1.98.09-3.33.34t-2.16.64q-.82.39-1.17.9-.35.52-.35 1.13 0 1.21.71 1.72.71.52 1.86.52 1.41 0 2.43-.51 1.03-.51 2.01-1.54Zm-9.66-9.97-.81-1.47q3.28-2.99 7.88-2.99 1.67 0 2.98.54 1.31.55 2.22 1.52.91.97 1.38 2.32.47 1.35.47 2.96v11.99h-2.07q-.65 0-1-.19-.35-.2-.56-.79l-.4-1.37q-.72.65-1.41 1.14-.68.49-1.42.82-.74.33-1.59.51-.84.18-1.85.18-1.21 0-2.22-.33-1.02-.32-1.76-.97-.74-.65-1.15-1.61-.41-.96-.41-2.24 0-.72.24-1.43.25-.71.79-1.36.55-.65 1.42-1.22.87-.57 2.13-1 1.27-.43 2.95-.69 1.69-.27 3.85-.33v-1.11q0-1.9-.81-2.82-.82-.91-2.35-.91-1.11 0-1.84.25-.73.26-1.29.59-.55.32-1.01.58-.45.26-1 .26-.49 0-.82-.25-.33-.25-.54-.58Zm18.56-4.11h4.59v18.98h-4.59v-18.98Zm5.22-5.53q0 .59-.24 1.11-.24.52-.64.9-.4.39-.94.62-.53.24-1.14.24-.59 0-1.12-.24-.53-.23-.92-.62-.39-.38-.62-.9-.23-.52-.23-1.11 0-.61.23-1.15.23-.54.62-.92.39-.39.92-.62.53-.24 1.12-.24.61 0 1.14.24.54.23.94.62.4.38.64.92t.24 1.15Zm4.09-2.98h4.57v27.49h-4.57v-27.49Zm19.16 22.59v-3.2q-1.98.09-3.33.34t-2.16.64q-.82.39-1.17.9-.35.52-.35 1.13 0 1.21.71 1.72.71.52 1.86.52 1.41 0 2.43-.51 1.03-.51 2.01-1.54Zm-9.66-9.97-.81-1.47q3.28-2.99 7.88-2.99 1.67 0 2.98.54 1.31.55 2.22 1.52.91.97 1.38 2.32.47 1.35.47 2.96v11.99h-2.07q-.65 0-1-.19-.35-.2-.56-.79l-.4-1.37q-.72.65-1.41 1.14-.68.49-1.42.82-.74.33-1.59.51-.84.18-1.85.18-1.21 0-2.22-.33-1.02-.32-1.76-.97-.74-.65-1.15-1.61-.41-.96-.41-2.24 0-.72.24-1.43.25-.71.79-1.36.55-.65 1.42-1.22.87-.57 2.13-1 1.27-.43 2.95-.69 1.69-.27 3.85-.33v-1.11q0-1.9-.81-2.82-.82-.91-2.35-.91-1.11 0-1.84.25-.73.26-1.29.59-.55.32-1.01.58-.45.26-1 .26-.49 0-.82-.25-.33-.25-.54-.58Zm22.98 1.44v8.51q.78.94 1.69 1.33.92.39 1.94.39 1.05 0 1.89-.38.85-.38 1.44-1.18.59-.81.9-2.06.32-1.25.32-2.98 0-3.13-1.04-4.53-1.03-1.39-2.98-1.39-1.31 0-2.29.6t-1.87 1.69Zm0-14.06v10.84q1.15-1.2 2.55-1.91 1.39-.72 3.19-.72 1.64 0 2.97.65 1.32.65 2.25 1.86.94 1.21 1.44 2.93.5 1.72.5 3.87 0 2.31-.58 4.2-.57 1.89-1.63 3.23-1.07 1.34-2.57 2.08-1.5.74-3.33.74-.88 0-1.61-.18-.72-.17-1.33-.49-.61-.31-1.12-.77-.51-.45-.97-1l-.2 1.27q-.11.48-.38.69-.27.2-.73.2h-3.02v-27.49h4.57Zm16.49 0h4.56v27.49h-4.56v-27.49Zm12.74 15.82h8.62q0-.89-.25-1.68-.25-.78-.75-1.38-.5-.59-1.26-.93-.77-.34-1.79-.34-1.98 0-3.12 1.13-1.13 1.12-1.45 3.2Zm11.66 2.75h-11.75q.11 1.46.52 2.53.4 1.06 1.07 1.76.67.69 1.58 1.03.92.34 2.03.34 1.11 0 1.91-.25.81-.26 1.41-.58.6-.31 1.05-.57.46-.26.88-.26.58 0 .85.42l1.32 1.67q-.76.89-1.71 1.49-.94.6-1.97.96-1.02.36-2.09.51-1.06.15-2.06.15-1.98 0-3.68-.66-1.7-.66-2.96-1.94-1.26-1.29-1.98-3.18-.72-1.9-.72-4.4 0-1.94.63-3.65t1.8-2.98q1.18-1.27 2.87-2.01 1.69-.74 3.82-.74 1.79 0 3.31.58 1.52.57 2.61 1.67 1.09 1.1 1.71 2.7.62 1.6.62 3.66 0 1.03-.22 1.39-.22.36-.85.36Z"/></svg>